<svg
	width="856"
	height="183"
	viewBox="0 0 856 183"
	fill="none"
	xmlns="http://www.w3.org/2000/svg"
>
	<g clip-path="url(#clip0_20_2)">
		<mask
			id="mask0_20_2"
			style="mask-type: alpha"
			maskUnits="userSpaceOnUse"
			x="12"
			y="40"
			width="840"
			height="136"
		>
			<path
				d="M12.45 145V40H57.9C67.3 40 75.4 41.55 82.2 44.65C89 47.65 94.25 52 97.95 57.7C101.65 63.4 103.5 70.2 103.5 78.1C103.5 85.9 101.65 92.65 97.95 98.35C94.25 104.05 89 108.45 82.2 111.55C75.4 114.55 67.3 116.05 57.9 116.05H25.95L36.75 105.1V145H12.45ZM36.75 107.8L25.95 96.25H56.55C64.05 96.25 69.65 94.65 73.35 91.45C77.05 88.25 78.9 83.8 78.9 78.1C78.9 72.3 77.05 67.8 73.35 64.6C69.65 61.4 64.05 59.8 56.55 59.8H25.95L36.75 48.25V107.8ZM119.052 145V64.3H141.402V87.1L138.252 80.5C140.652 74.8 144.502 70.5 149.802 67.6C155.102 64.6 161.552 63.1 169.152 63.1V84.7C168.152 84.6 167.252 84.55 166.452 84.55C165.652 84.45 164.802 84.4 163.902 84.4C157.502 84.4 152.302 86.25 148.302 89.95C144.402 93.55 142.452 99.2 142.452 106.9V145H119.052ZM220.88 146.2C212.28 146.2 204.63 144.4 197.93 140.8C191.33 137.2 186.08 132.3 182.18 126.1C178.38 119.8 176.48 112.65 176.48 104.65C176.48 96.55 178.38 89.4 182.18 83.2C186.08 76.9 191.33 72 197.93 68.5C204.63 64.9 212.28 63.1 220.88 63.1C229.38 63.1 236.98 64.9 243.68 68.5C250.38 72 255.63 76.85 259.43 83.05C263.23 89.25 265.13 96.45 265.13 104.65C265.13 112.65 263.23 119.8 259.43 126.1C255.63 132.3 250.38 137.2 243.68 140.8C236.98 144.4 229.38 146.2 220.88 146.2ZM220.88 127C224.78 127 228.28 126.1 231.38 124.3C234.48 122.5 236.93 119.95 238.73 116.65C240.53 113.25 241.43 109.25 241.43 104.65C241.43 99.95 240.53 95.95 238.73 92.65C236.93 89.35 234.48 86.8 231.38 85C228.28 83.2 224.78 82.3 220.88 82.3C216.98 82.3 213.48 83.2 210.38 85C207.28 86.8 204.78 89.35 202.88 92.65C201.08 95.95 200.18 99.95 200.18 104.65C200.18 109.25 201.08 113.25 202.88 116.65C204.78 119.95 207.28 122.5 210.38 124.3C213.48 126.1 216.98 127 220.88 127ZM318.721 175.3C311.121 175.3 303.771 174.35 296.671 172.45C289.671 170.65 283.821 167.9 279.121 164.2L288.421 147.4C291.821 150.2 296.121 152.4 301.321 154C306.621 155.7 311.821 156.55 316.921 156.55C325.221 156.55 331.221 154.7 334.921 151C338.721 147.3 340.621 141.8 340.621 134.5V122.35L342.121 102.1L341.821 81.7V64.3H364.021V131.5C364.021 146.5 360.121 157.55 352.321 164.65C344.521 171.75 333.321 175.3 318.721 175.3ZM315.121 141.1C307.621 141.1 300.821 139.5 294.721 136.3C288.721 133 283.871 128.45 280.171 122.65C276.571 116.75 274.771 109.9 274.771 102.1C274.771 94.2 276.571 87.35 280.171 81.55C283.871 75.65 288.721 71.1 294.721 67.9C300.821 64.7 307.621 63.1 315.121 63.1C321.921 63.1 327.921 64.5 333.121 67.3C338.321 70 342.371 74.25 345.271 80.05C348.171 85.75 349.621 93.1 349.621 102.1C349.621 111 348.171 118.35 345.271 124.15C342.371 129.85 338.321 134.1 333.121 136.9C327.921 139.7 321.921 141.1 315.121 141.1ZM319.771 121.9C323.871 121.9 327.521 121.1 330.721 119.5C333.921 117.8 336.421 115.45 338.221 112.45C340.021 109.45 340.921 106 340.921 102.1C340.921 98.1 340.021 94.65 338.221 91.75C336.421 88.75 333.921 86.45 330.721 84.85C327.521 83.15 323.871 82.3 319.771 82.3C315.671 82.3 312.021 83.15 308.821 84.85C305.621 86.45 303.071 88.75 301.171 91.75C299.371 94.65 298.471 98.1 298.471 102.1C298.471 106 299.371 109.45 301.171 112.45C303.071 115.45 305.621 117.8 308.821 119.5C312.021 121.1 315.671 121.9 319.771 121.9ZM385.8 145V64.3H408.15V87.1L405 80.5C407.4 74.8 411.25 70.5 416.55 67.6C421.85 64.6 428.3 63.1 435.9 63.1V84.7C434.9 84.6 434 84.55 433.2 84.55C432.4 84.45 431.55 84.4 430.65 84.4C424.25 84.4 419.05 86.25 415.05 89.95C411.15 93.55 409.2 99.2 409.2 106.9V145H385.8ZM489.278 146.2C480.078 146.2 471.978 144.4 464.978 140.8C458.078 137.2 452.728 132.3 448.928 126.1C445.128 119.8 443.228 112.65 443.228 104.65C443.228 96.55 445.078 89.4 448.778 83.2C452.578 76.9 457.728 72 464.228 68.5C470.728 64.9 478.078 63.1 486.278 63.1C494.178 63.1 501.278 64.8 507.578 68.2C513.978 71.5 519.028 76.3 522.728 82.6C526.428 88.8 528.278 96.25 528.278 104.95C528.278 105.85 528.228 106.9 528.128 108.1C528.028 109.2 527.928 110.25 527.828 111.25H462.278V97.6H515.528L506.528 101.65C506.528 97.45 505.678 93.8 503.978 90.7C502.278 87.6 499.928 85.2 496.928 83.5C493.928 81.7 490.428 80.8 486.428 80.8C482.428 80.8 478.878 81.7 475.778 83.5C472.778 85.2 470.428 87.65 468.728 90.85C467.028 93.95 466.178 97.65 466.178 101.95V105.55C466.178 109.95 467.128 113.85 469.028 117.25C471.028 120.55 473.778 123.1 477.278 124.9C480.878 126.6 485.078 127.45 489.878 127.45C494.178 127.45 497.928 126.8 501.128 125.5C504.428 124.2 507.428 122.25 510.128 119.65L522.578 133.15C518.878 137.35 514.228 140.6 508.628 142.9C503.028 145.1 496.578 146.2 489.278 146.2ZM571.007 146.2C564.107 146.2 557.457 145.4 551.057 143.8C544.757 142.1 539.757 140 536.057 137.5L543.857 120.7C547.557 123 551.907 124.9 556.907 126.4C562.007 127.8 567.007 128.5 571.907 128.5C577.307 128.5 581.107 127.85 583.307 126.55C585.607 125.25 586.757 123.45 586.757 121.15C586.757 119.25 585.857 117.85 584.057 116.95C582.357 115.95 580.057 115.2 577.157 114.7C574.257 114.2 571.057 113.7 567.557 113.2C564.157 112.7 560.707 112.05 557.207 111.25C553.707 110.35 550.507 109.05 547.607 107.35C544.707 105.65 542.357 103.35 540.557 100.45C538.857 97.55 538.007 93.8 538.007 89.2C538.007 84.1 539.457 79.6 542.357 75.7C545.357 71.8 549.657 68.75 555.257 66.55C560.857 64.25 567.557 63.1 575.357 63.1C580.857 63.1 586.457 63.7 592.157 64.9C597.857 66.1 602.607 67.85 606.407 70.15L598.607 86.8C594.707 84.5 590.757 82.95 586.757 82.15C582.857 81.25 579.057 80.8 575.357 80.8C570.157 80.8 566.357 81.5 563.957 82.9C561.557 84.3 560.357 86.1 560.357 88.3C560.357 90.3 561.207 91.8 562.907 92.8C564.707 93.8 567.057 94.6 569.957 95.2C572.857 95.8 576.007 96.35 579.407 96.85C582.907 97.25 586.407 97.9 589.907 98.8C593.407 99.7 596.557 101 599.357 102.7C602.257 104.3 604.607 106.55 606.407 109.45C608.207 112.25 609.107 115.95 609.107 120.55C609.107 125.55 607.607 130 604.607 133.9C601.607 137.7 597.257 140.7 591.557 142.9C585.957 145.1 579.107 146.2 571.007 146.2ZM650.694 146.2C643.794 146.2 637.144 145.4 630.744 143.8C624.444 142.1 619.444 140 615.744 137.5L623.544 120.7C627.244 123 631.594 124.9 636.594 126.4C641.694 127.8 646.694 128.5 651.594 128.5C656.994 128.5 660.794 127.85 662.994 126.55C665.294 125.25 666.444 123.45 666.444 121.15C666.444 119.25 665.544 117.85 663.744 116.95C662.044 115.95 659.744 115.2 656.844 114.7C653.944 114.2 650.744 113.7 647.244 113.2C643.844 112.7 640.394 112.05 636.894 111.25C633.394 110.35 630.194 109.05 627.294 107.35C624.394 105.65 622.044 103.35 620.244 100.45C618.544 97.55 617.694 93.8 617.694 89.2C617.694 84.1 619.144 79.6 622.044 75.7C625.044 71.8 629.344 68.75 634.944 66.55C640.544 64.25 647.244 63.1 655.044 63.1C660.544 63.1 666.144 63.7 671.844 64.9C677.544 66.1 682.294 67.85 686.094 70.15L678.294 86.8C674.394 84.5 670.444 82.95 666.444 82.15C662.544 81.25 658.744 80.8 655.044 80.8C649.844 80.8 646.044 81.5 643.644 82.9C641.244 84.3 640.044 86.1 640.044 88.3C640.044 90.3 640.894 91.8 642.594 92.8C644.394 93.8 646.744 94.6 649.644 95.2C652.544 95.8 655.694 96.35 659.094 96.85C662.594 97.25 666.094 97.9 669.594 98.8C673.094 99.7 676.244 101 679.044 102.7C681.944 104.3 684.294 106.55 686.094 109.45C687.894 112.25 688.794 115.95 688.794 120.55C688.794 125.55 687.294 130 684.294 133.9C681.294 137.7 676.944 140.7 671.244 142.9C665.644 145.1 658.794 146.2 650.694 146.2ZM741.632 146.2C733.032 146.2 725.382 144.4 718.682 140.8C712.082 137.2 706.832 132.3 702.932 126.1C699.132 119.8 697.232 112.65 697.232 104.65C697.232 96.55 699.132 89.4 702.932 83.2C706.832 76.9 712.082 72 718.682 68.5C725.382 64.9 733.032 63.1 741.632 63.1C750.132 63.1 757.732 64.9 764.432 68.5C771.132 72 776.382 76.85 780.182 83.05C783.982 89.25 785.882 96.45 785.882 104.65C785.882 112.65 783.982 119.8 780.182 126.1C776.382 132.3 771.132 137.2 764.432 140.8C757.732 144.4 750.132 146.2 741.632 146.2ZM741.632 127C745.532 127 749.032 126.1 752.132 124.3C755.232 122.5 757.682 119.95 759.482 116.65C761.282 113.25 762.182 109.25 762.182 104.65C762.182 99.95 761.282 95.95 759.482 92.65C757.682 89.35 755.232 86.8 752.132 85C749.032 83.2 745.532 82.3 741.632 82.3C737.732 82.3 734.232 83.2 731.132 85C728.032 86.8 725.532 89.35 723.632 92.65C721.832 95.95 720.932 99.95 720.932 104.65C720.932 109.25 721.832 113.25 723.632 116.65C725.532 119.95 728.032 122.5 731.132 124.3C734.232 126.1 737.732 127 741.632 127ZM801.523 145V64.3H823.873V87.1L820.723 80.5C823.123 74.8 826.973 70.5 832.273 67.6C837.573 64.6 844.023 63.1 851.623 63.1V84.7C850.623 84.6 849.723 84.55 848.923 84.55C848.123 84.45 847.273 84.4 846.373 84.4C839.973 84.4 834.773 86.25 830.773 89.95C826.873 93.55 824.923 99.2 824.923 106.9V145H801.523Z"
				fill="white"
			/>
		</mask>
		<g mask="url(#mask0_20_2)">
			<rect width="856" height="183" fill="url(#paint0_linear_20_2)" />
		</g>
	</g>
	<defs>
		<linearGradient
			id="paint0_linear_20_2"
			x1="92.5326"
			y1="-25.7471"
			x2="200.341"
			y2="393.492"
			gradientUnits="userSpaceOnUse"
		>
			<stop stop-color="#5A18FB" />
			<stop offset="1" stop-color="#AE02FB" stop-opacity="0.31" />
		</linearGradient>
		<clipPath id="clip0_20_2">
			<rect width="856" height="183" fill="white" />
		</clipPath>
	</defs>
</svg>
