<svg width="24" height="23" viewBox="0 0 24 23" fill="none" xmlns="http://www.w3.org/2000/svg">
<path d="M2 12.8264H9.5C9.83152 12.8264 10.1495 12.6947 10.3839 12.4603C10.6183 12.2259 10.75 11.9079 10.75 11.5764V1.57642C10.75 1.2449 10.6183 0.926953 10.3839 0.692532C10.1495 0.458112 9.83152 0.326416 9.5 0.326416H2C1.66848 0.326416 1.35054 0.458112 1.11612 0.692532C0.881696 0.926953 0.75 1.2449 0.75 1.57642V11.5764C0.75 11.9079 0.881696 12.2259 1.11612 12.4603C1.35054 12.6947 1.66848 12.8264 2 12.8264ZM0.75 21.5764C0.75 21.9079 0.881696 22.2259 1.11612 22.4603C1.35054 22.6947 1.66848 22.8264 2 22.8264H9.5C9.83152 22.8264 10.1495 22.6947 10.3839 22.4603C10.6183 22.2259 10.75 21.9079 10.75 21.5764V16.5764C10.75 16.2449 10.6183 15.927 10.3839 15.6925C10.1495 15.4581 9.83152 15.3264 9.5 15.3264H2C1.66848 15.3264 1.35054 15.4581 1.11612 15.6925C0.881696 15.927 0.75 16.2449 0.75 16.5764V21.5764ZM13.25 21.5764C13.25 21.9079 13.3817 22.2259 13.6161 22.4603C13.8505 22.6947 14.1685 22.8264 14.5 22.8264H22C22.3315 22.8264 22.6495 22.6947 22.8839 22.4603C23.1183 22.2259 23.25 21.9079 23.25 21.5764V12.8264C23.25 12.4949 23.1183 12.177 22.8839 11.9425C22.6495 11.7081 22.3315 11.5764 22 11.5764H14.5C14.1685 11.5764 13.8505 11.7081 13.6161 11.9425C13.3817 12.177 13.25 12.4949 13.25 12.8264V21.5764ZM14.5 9.07642H22C22.3315 9.07642 22.6495 8.94472 22.8839 8.7103C23.1183 8.47588 23.25 8.15794 23.25 7.82642V1.57642C23.25 1.2449 23.1183 0.926953 22.8839 0.692532C22.6495 0.458112 22.3315 0.326416 22 0.326416H14.5C14.1685 0.326416 13.8505 0.458112 13.6161 0.692532C13.3817 0.926953 13.25 1.2449 13.25 1.57642V7.82642C13.25 8.15794 13.3817 8.47588 13.6161 8.7103C13.8505 8.94472 14.1685 9.07642 14.5 9.07642Z" fill="black"/>
</svg>
