<svg width="21" height="21" viewBox="0 0 21 21" fill="none" xmlns="http://www.w3.org/2000/svg">
<g clip-path="url(#clip0_30_112)">
<path fill-rule="evenodd" clip-rule="evenodd" d="M10.8247 0.0825195C5.29971 0.0825195 0.824707 4.55752 0.824707 10.0825C0.824707 14.5075 3.68721 18.245 7.66221 19.57C8.16221 19.6575 8.34971 19.3575 8.34971 19.095C8.34971 18.8575 8.33721 18.07 8.33721 17.2325C5.82471 17.695 5.17471 16.62 4.97471 16.0575C4.86221 15.77 4.37471 14.8825 3.94971 14.645C3.59971 14.4575 3.09971 13.995 3.93721 13.9825C4.72471 13.97 5.28721 14.7075 5.47471 15.0075C6.37471 16.52 7.81221 16.095 8.38721 15.8325C8.47471 15.1825 8.73721 14.745 9.02471 14.495C6.79971 14.245 4.47471 13.3825 4.47471 9.55752C4.47471 8.47002 4.86221 7.57002 5.49971 6.87002C5.39971 6.62002 5.04971 5.59502 5.59971 4.22002C5.59971 4.22002 6.43721 3.95752 8.34971 5.24502C9.14971 5.02002 9.99971 4.90752 10.8497 4.90752C11.6997 4.90752 12.5497 5.02002 13.3497 5.24502C15.2622 3.94502 16.0997 4.22002 16.0997 4.22002C16.6497 5.59502 16.2997 6.62002 16.1997 6.87002C16.8372 7.57002 17.2247 8.45752 17.2247 9.55752C17.2247 13.395 14.8872 14.245 12.6622 14.495C13.0247 14.8075 13.3372 15.4075 13.3372 16.345C13.3372 17.6825 13.3247 18.7575 13.3247 19.095C13.3247 19.3575 13.5122 19.67 14.0122 19.57C15.9974 18.8998 17.7224 17.6239 18.9444 15.922C20.1665 14.2201 20.8241 12.1778 20.8247 10.0825C20.8247 4.55752 16.3497 0.0825195 10.8247 0.0825195Z" fill="black"/>
</g>
<defs>
<clipPath id="clip0_30_112">
<rect width="20" height="20" fill="white" transform="translate(0.824707 0.0825195)"/>
</clipPath>
</defs>
</svg>
