<svg width="30" height="30" viewBox="0 0 30 30" fill="none" xmlns="http://www.w3.org/2000/svg">
<path d="M24.85 23.0875C25.4 22.2125 25.725 21.2 25.725 20.1C25.725 16.9875 23.2125 14.475 20.1 14.475C16.9875 14.475 14.475 16.9875 14.475 20.1C14.475 23.2125 16.9875 25.725 20.0875 25.725C21.1875 25.725 22.2125 25.4 23.075 24.85L26.975 28.75L28.75 26.975L24.85 23.0875ZM20.1 23.225C19.2712 23.225 18.4763 22.8958 17.8903 22.3097C17.3042 21.7237 16.975 20.9288 16.975 20.1C16.975 19.2712 17.3042 18.4763 17.8903 17.8903C18.4763 17.3042 19.2712 16.975 20.1 16.975C20.9288 16.975 21.7237 17.3042 22.3097 17.8903C22.8958 18.4763 23.225 19.2712 23.225 20.1C23.225 20.9288 22.8958 21.7237 22.3097 22.3097C21.7237 22.8958 20.9288 23.225 20.1 23.225ZM19.65 12.6C18.725 12.625 17.8375 12.825 17.025 13.1625L16.3375 12.125L11.5875 19.85L7.825 15.45L3.2875 22.7125L1.25 21.25L7.5 11.25L11.25 15.625L16.25 7.5L19.65 12.6V12.6ZM22.8875 13.225C22.0875 12.875 21.225 12.6625 20.325 12.6125L26.725 2.5L28.75 3.975L22.8875 13.225V13.225Z" fill="black"/>
</svg>
