<svg width="22" height="21" viewBox="0 0 22 21" fill="none" xmlns="http://www.w3.org/2000/svg">
<path d="M19.5438 5.73898C19.2726 5.11093 18.8814 4.5418 18.3924 4.06344C17.9029 3.58366 17.3259 3.20238 16.6925 2.94035C16.0358 2.66755 15.3315 2.52792 14.6204 2.52956C13.6227 2.52956 12.6494 2.80274 11.8035 3.31876C11.6012 3.4422 11.4089 3.57778 11.2268 3.7255C11.0447 3.57778 10.8524 3.4422 10.6501 3.31876C9.80422 2.80274 8.83087 2.52956 7.83323 2.52956C7.11486 2.52956 6.41874 2.66716 5.76107 2.94035C5.12566 3.20341 4.55298 3.58183 4.06125 4.06344C3.57153 4.54126 3.18033 5.11053 2.90982 5.73898C2.62854 6.3926 2.48486 7.0867 2.48486 7.80103C2.48486 8.47489 2.62247 9.17708 2.89565 9.89141C3.12432 10.4884 3.45214 11.1076 3.87103 11.7329C4.53477 12.7224 5.44741 13.7545 6.58063 14.8007C8.45853 16.5349 10.3182 17.7329 10.3971 17.7814L10.8767 18.089C11.0892 18.2246 11.3624 18.2246 11.5749 18.089L12.0545 17.7814C12.1334 17.7308 13.991 16.5349 15.871 14.8007C17.0042 13.7545 17.9168 12.7224 18.5806 11.7329C18.9995 11.1076 19.3293 10.4884 19.5559 9.89141C19.8291 9.17708 19.9667 8.47489 19.9667 7.80103C19.9688 7.0867 19.8251 6.3926 19.5438 5.73898V5.73898Z" fill="#A50C0C"/>
</svg>
