<svg width="25" height="25" viewBox="0 0 1024 1024" fill="none" xmlns="http://www.w3.org/2000/svg">
<path d="M955.7 856L539.7 136C533.5 125.3 522.8 120 512 120C501.2 120 490.4 125.3 484.3 136L68.3 856C55.9999 877.4 71.3999 904 95.9999 904H928C952.6 904 968 877.4 955.7 856ZM480 416C480 411.6 483.6 408 488 408H536C540.4 408 544 411.6 544 416V600C544 604.4 540.4 608 536 608H488C483.6 608 480 604.4 480 600V416ZM512 768C499.439 767.744 487.479 762.574 478.687 753.6C469.894 744.626 464.97 732.563 464.97 720C464.97 707.437 469.894 695.374 478.687 686.4C487.479 677.426 499.439 672.256 512 672C524.561 672.256 536.52 677.426 545.313 686.4C554.105 695.374 559.03 707.437 559.03 720C559.03 732.563 554.105 744.626 545.313 753.6C536.52 762.574 524.561 767.744 512 768V768Z" fill="#F59E0B"/>
</svg>
